<?xml version="1.0" encoding="iso-8859-1"?>
<!-- Uploaded to: SVG Repo, www.svgrepo.com, Generator: SVG Repo Mixer Tools -->
<svg version="1.1" id="Layer_1" xmlns="http://www.w3.org/2000/svg" xmlns:xlink="http://www.w3.org/1999/xlink" 
	 viewBox="0 0 512.001 512.001" xml:space="preserve">
<path style="fill:#362928;" d="M451.118,473.412H60.666c0-259.285,195.233-290.939,195.233-290.939S451.118,214.127,451.118,473.412
	z"/>
<path style="fill:#2E2322;" d="M60.666,473.412h63.425c5.515-115.581,18.62-191.74,30.914-239.939
	C107.313,274.325,60.666,346.671,60.666,473.412z"/>
<rect x="60.657" y="441.146" style="fill:#FFE666;" width="390.06" height="32.262"/>
<rect x="60.657" y="441.146" style="fill:#EDBF31;" width="63.431" height="32.262"/>
<path style="fill:#F75534;" d="M144.161,178.604c-10.376,29.166-19.488,85.245-26.747,143.044c-0.338,2.703-0.676,5.406-1.003,8.109
	c-0.327,2.703-0.654,5.406-0.981,8.109c-2.551,21.331-4.839,42.562-6.845,62.454c-0.556,5.537-1.09,10.976-1.591,16.272
	c-0.261,2.638-0.512,5.242-0.752,7.816c-1.547,16.371-2.867,31.293-3.946,43.902c-1.384,16.414-2.365,28.917-2.866,35.576
	c-0.207,2.769-2.922,4.632-5.591,3.847l-0.687-0.207l-70.029-20.753l-19.99-5.918c-1.918-0.566-3.215-2.376-3.128-4.381
	c0.523-11.325,1.493-22.356,2.856-33.08c2.158-17.068,5.319-33.384,9.243-48.917c0.327-1.308,0.665-2.605,1.014-3.891
	c1.395-5.362,2.888-10.627,4.479-15.793c6.256-20.524,13.809-39.533,22.093-56.993c1.166-2.486,2.354-4.938,3.554-7.357
	c1.232-2.486,2.474-4.927,3.739-7.347c32.132-61.811,71.784-101.757,88.787-117.234
	C141.066,181.056,144.161,178.604,144.161,178.604z"/>
<path style="fill:#BD391E;" d="M135.769,185.863c-2.081,6.779-4.098,14.616-6.06,23.271c-19.205,22.093-42.507,53.473-62.367,93.485
	c-12.306,24.753-23.281,52.819-31.151,84.035c-3.924,15.531-7.074,31.847-9.232,48.917c-0.523,4.164-1.166,8.981-1.842,14.431
	c-1.232,10.016-2.551,22.17-3.39,36.36L3.13,480.855c-1.919-0.568-3.215-2.375-3.122-4.375c0.235-5.078,0.56-10.093,0.978-15.056
	c0.283-3.466,0.6-6.899,0.97-10.311c0.283-2.594,0.578-5.167,0.905-7.717c2.158-17.068,5.319-33.384,9.243-48.917
	c7.869-31.216,18.834-59.282,31.14-84.035C75.986,244.447,118.101,201.951,135.769,185.863z"/>
<path style="fill:#FFE666;" d="M102.101,470.611c-0.632,7.499-1.166,13.973-1.602,19.368c-0.478,6.009-0.835,10.673-1.077,13.908
	c-0.208,2.772-2.92,4.636-5.586,3.846l-64.26-19.04l-26.446-7.839c-1.919-0.568-3.214-2.375-3.121-4.374
	c0.235-5.078,0.56-10.094,0.978-15.057c0.49-6.093,1.122-12.109,1.875-18.028h0.01c0,0,12.284,3.727,28.949,8.557
	C53.598,458.262,82.874,466.438,102.101,470.611z"/>
<path style="fill:#EDBF31;" d="M25.117,450c-1.232,10.016-2.551,22.17-3.39,36.36L3.13,480.854
	c-1.919-0.568-3.215-2.375-3.122-4.375c0.235-5.078,0.56-10.093,0.978-15.056c0.283-3.466,0.6-6.899,0.97-10.311
	c0.283-2.594,0.578-5.167,0.905-7.717h0.01C2.871,443.395,11.962,446.153,25.117,450z"/>
<path style="fill:#F75534;" d="M511.997,476.476c0.087,2.005-1.21,3.815-3.128,4.381L432.67,503.43l-14.518,4.305
	c-2.659,0.795-5.373-1.068-5.591-3.837c-0.566-7.379-1.657-21.363-2.856-35.587c-1.079-12.611-2.398-27.532-3.946-43.902
	c-0.239-2.573-0.49-5.177-0.752-7.816c-0.502-5.297-1.035-10.735-1.591-16.272c-2.005-19.892-4.295-41.124-6.845-62.454
	c-0.327-2.703-0.654-5.406-0.981-8.109c-0.327-2.703-0.665-5.417-1.003-8.109c-6.812-54.247-15.26-106.978-24.84-137.365
	c-0.632-1.995-1.264-3.891-1.907-5.679c0,0,55.032,43.456,97.18,124.493c1.264,2.408,2.507,4.861,3.739,7.347
	c1.2,2.419,2.388,4.871,3.554,7.357c8.284,17.461,15.836,36.47,22.093,56.993c1.591,5.166,3.085,10.43,4.479,15.793
	c0.349,1.286,0.686,2.583,1.014,3.891c3.924,15.531,7.084,31.847,9.243,48.917C510.504,454.12,511.473,465.151,511.997,476.476z"/>
<path style="fill:#BD391E;" d="M432.67,503.43l-14.518,4.306c-2.662,0.79-5.374-1.07-5.586-3.838
	c-0.545-7.112-1.574-20.318-2.698-33.701c-0.054-0.621-0.109-1.253-0.163-1.886c-1.079-12.611-2.398-27.532-3.946-43.902
	c-2.714-28.644-6.137-61.735-10.169-94.651c-6.976-57.047-15.782-113.572-25.842-145.475c6.486,5.81,17.254,16.033,29.984,30.474
	c4.479,25.81,8.556,55.032,12.153,84.406c4.022,32.916,7.455,66.007,10.169,94.651c1.547,16.371,3.444,31.184,4.523,43.794
	c0.708,8.381,1.624,18.529,2.529,28.317C430.904,485.381,432.67,503.43,432.67,503.43z"/>
<path style="fill:#FFE666;" d="M511.994,476.476c0.093,2.001-1.204,3.811-3.124,4.38l-71.708,21.245l-18.996,5.633
	c-2.664,0.79-5.378-1.074-5.586-3.845c-0.462-6.138-1.337-17.414-2.677-33.276c7.313-1.591,16.077-3.749,25.33-6.169
	c33.701-8.828,73.898-21.047,73.898-21.047h0.01C510.498,454.126,511.468,465.151,511.994,476.476z"/>
<path style="fill:#EDBF31;" d="M432.67,503.43l-14.518,4.306c-2.662,0.79-5.374-1.07-5.586-3.838
	c-0.545-7.112-1.574-20.318-2.698-33.701c7.096-1.547,14.082-3.085,19.238-4.273C430.904,485.381,432.67,503.43,432.67,503.43z"/>
<path style="fill:#F75534;" d="M424.027,264.045H87.757c0,0,21.145-118.117,166.849-162.762c0.283-0.088,0.578-0.142,0.872-0.174
	c0.578-0.054,1.166,0,1.722,0.174C402.871,145.928,424.027,264.045,424.027,264.045z"/>
<path style="fill:#BD391E;" d="M255.477,101.109C124.815,167.05,110.733,264.045,110.733,264.045H87.757
	c0,0,21.145-118.117,166.849-162.762C254.889,101.196,255.184,101.141,255.477,101.109z"/>
<path style="fill:#FFE666;" d="M421.851,61.79c0,71.684-76.947,129.795-171.878,129.795c-94.917,0-171.878-58.111-171.878-129.795
	c0-19.921,5.941-38.792,16.561-55.658c2.444-3.881,8.405-1.854,8.038,2.718c-0.246,3.055-0.37,6.14-0.37,9.249
	c0,71.685,66.11,129.795,147.649,129.795c81.554,0,147.664-58.11,147.664-129.795c0-3.104-0.124-6.181-0.369-9.227
	c-0.366-4.572,5.596-6.599,8.039-2.716C415.917,23.017,421.851,41.878,421.851,61.79z"/>
<path style="fill:#EBC13F;" d="M411.264,16.879c0.607,4.88,0.928,9.834,0.928,14.851c0,76.601-72.624,138.699-162.22,138.699
	c-89.583,0-162.22-62.097-162.22-138.699c0-5.017,0.321-9.969,0.928-14.848C81.846,30.877,78.095,46,78.095,61.79
	c0,71.684,76.961,129.795,171.878,129.795c94.931,0,171.878-58.111,171.878-129.795C421.851,45.999,418.101,30.875,411.264,16.879z"
	/>
<path style="fill:#E64524;" d="M422.752,267.914c-34.05,7.423-107.109,17.45-164.549,24.938c-0.741,0.098-1.461,0.153-2.202,0.153
	c-0.795,0-1.602-0.054-2.398-0.163c-17.843-2.42-134.052-18.29-164.407-24.895c-4.479-0.97-4.6-7.335-0.153-8.479
	c59.653-15.445,143.949-27.597,162.947-30.235c0.502-0.076,0.959-0.141,1.373-0.195c1.7-0.24,3.4-0.24,5.101,0
	c12.862,1.809,73.419,10.713,164.265,30.432C427.264,260.448,427.286,266.923,422.752,267.914z"/>
<path style="fill:#CF3E21;" d="M256.001,229.036v63.969c-0.795,0-1.602-0.054-2.398-0.163
	c-17.843-2.42-134.052-18.29-164.407-24.895c-4.479-0.97-4.6-7.335-0.153-8.479c59.653-15.445,143.949-27.597,162.947-30.235
	L256.001,229.036z"/>
<g>
	<path style="fill:#752313;" d="M498.884,390.587c-7.411,3.106-50.116,20.415-93.627,25.985c-0.088,0.01-0.163,0.021-0.251,0.021
		c-0.502-5.297-1.035-10.735-1.591-16.272c44.448-5.733,89.626-25.015,90.073-25.2c0.305-0.131,0.61-0.239,0.915-0.327
		C495.996,379.961,497.489,385.225,498.884,390.587z"/>
	<path style="fill:#752313;" d="M472.312,317.801c-0.251,0.131-0.502,0.229-0.763,0.327c-1.733,0.622-42.66,15.357-74.858,19.728
		c-0.044,0.011-0.076,0.011-0.12,0.011c-0.327-2.703-0.654-5.406-0.981-8.109c-0.327-2.703-0.665-5.417-1.003-8.109
		c27.837-3.793,64.133-16.328,70.432-18.551c1.264,2.408,2.507,4.861,3.739,7.347C469.957,312.864,471.145,315.316,472.312,317.801z
		"/>
	<path style="fill:#752313;" d="M108.586,400.321c-0.556,5.537-1.09,10.976-1.591,16.272c-0.088,0-0.163-0.01-0.251-0.021
		c-43.511-5.57-86.215-22.878-93.627-25.985c1.395-5.362,2.888-10.627,4.479-15.793c0.305,0.088,0.61,0.195,0.915,0.327
		C18.96,375.307,64.138,394.587,108.586,400.321z"/>
	<path style="fill:#752313;" d="M117.414,321.648c-0.338,2.703-0.676,5.406-1.003,8.109c-0.327,2.703-0.654,5.406-0.981,8.109
		c-0.044,0-0.076,0-0.12-0.011c-32.197-4.371-73.124-19.107-74.858-19.728c-0.261-0.098-0.512-0.195-0.763-0.327
		c1.166-2.486,2.354-4.938,3.554-7.357c1.232-2.486,2.474-4.927,3.739-7.347C53.281,305.321,89.577,317.855,117.414,321.648z"/>
</g>
</svg>