<!DOCTYPE svg PUBLIC "-//W3C//DTD SVG 1.1//EN" "http://www.w3.org/Graphics/SVG/1.1/DTD/svg11.dtd">
<!-- Uploaded to: SVG Repo, www.svgrepo.com, Transformed by: SVG Repo Mixer Tools -->
<svg height="800px" width="800px" version="1.1" id="Layer_1" xmlns="http://www.w3.org/2000/svg" xmlns:xlink="http://www.w3.org/1999/xlink" viewBox="0 0 512 512" xml:space="preserve" fill="#000000">
<g id="SVGRepo_bgCarrier" stroke-width="0"/>
<g id="SVGRepo_tracerCarrier" stroke-linecap="round" stroke-linejoin="round"/>
<g id="SVGRepo_iconCarrier"> <path style="fill:#fcfcfc;" d="M450.216,231.812c0-4.875-3.948-8.828-8.828-8.828c-4.88,0-8.828,3.953-8.828,8.828 c0,73.014-79.199,132.416-176.555,132.416S79.45,304.826,79.45,231.812c0-4.875-3.948-8.828-8.828-8.828 c-4.88,0-8.828,3.953-8.828,8.828c0,80.473,82.397,146.332,185.418,149.9c-0.001,0.061-0.035,0.111-0.035,0.172v79.45 c0,4.875,3.948,8.828,8.828,8.828c4.88,0,8.828-3.953,8.828-8.828v-79.45c0-0.061-0.034-0.111-0.035-0.172 C367.818,378.144,450.216,312.285,450.216,231.812z"/> <path style="fill:#fffafa;" d="M247.177,407.119c2.837,0.735,5.761,1.248,8.828,1.248c3.067,0,5.991-0.513,8.828-1.248v-25.235 h-17.656V407.119z"/> <circle style="fill:#fcfcfc;" cx="256.005" cy="373.05" r="17.656"/> <path style="fill:#fffafa;" d="M510.231,224.033L266.446,45.257c-3.107-2.279-6.774-3.419-10.441-3.419v189.972h251.679 C511.847,231.812,513.588,226.494,510.231,224.033z"/> <path style="fill:#fffafa;" d="M1.768,224.033L245.553,45.257c3.107-2.279,6.774-3.419,10.441-3.419v189.972H4.315 C0.154,231.812-1.589,226.494,1.768,224.033z"/> <path style="fill:#fffafa;" d="M266.446,45.257c-6.215-4.557-14.667-4.557-20.882,0l-2.094,1.537L114.761,231.812h282.488 L268.542,46.794L266.446,45.257z"/> <path style="fill:#fffafa;" d="M268.542,46.794l-2.094-1.537c-3.107-2.279-6.774-3.419-10.441-3.419v189.972H397.25L268.542,46.794z "/> </g>
</svg>