<?xml version="1.0" encoding="utf-8"?>
<!-- Uploaded to: SVG Repo, www.svgrepo.com, Generator: SVG Repo Mixer Tools -->
<svg width="800px" height="800px" viewBox="0 0 1024 1024" fill="#000000" class="icon"  version="1.1" xmlns="http://www.w3.org/2000/svg"><path d="M299.553 479.395h208.364c104.234-114.357-104.128-228.715 0-343.040h-208.364c-104.267 114.325 104.234 228.682 0 343.040zM326.701 307.929c-21.039-42.592 5.698-77.053 49.077-77.053 41.769 0 83.984 34.46 105.092 77.053 21.039 42.559-5.698 77.017-49.045 77.017-41.872-0.033-84.053-34.528-105.125-77.017zM370.562 331.917c7.551 4.976 14.724 7.483 21.484 7.483 7.651 0 12.595-2.299 14.963-6.933 2.299-4.636 2.162-11.773-0.412-21.484h36.519c2.814 7.551 2.266 12.733-1.547 15.548-2.129 1.578-6.177 2.542-12.15 2.881 1.786 3.947 3.465 7.892 5.011 11.873 7.755 0 13.282-1.27 16.749-3.844 6.416-4.636 7.242-13.454 2.129-26.464h12.972c-0.927-2.129-1.956-4.257-2.85-6.35h-13.041c-6.82-12.635-16.598-22.891-28.444-30.091 7.075 4.352-3.204-0.054-14.512-0.054-0.354 0-0.707 0.003-1.061 0.016-8.116-0.001-13.196 3.021-14.843 9.027-0.891 3.707-0.686 10.741 1.201 21.142h-32.638c-2.542-6.177-2.196-10.673 1.062-13.489 2.151-1.674 4.876-2.699 7.839-2.755-2.004-3.903-3.685-7.814-5.3-11.728-7.447 0.24-12.527 2.743-15.067 7.483-2.608 4.735-2.162 11.599 1.201 20.487h-8.788l2.95 6.35h8.925c4.118 8.956 10.022 15.926 17.644 20.9zM404.747 292.691c1.099-4.082 4.427-6.177 10.057-6.177 3.535 0 6.966 0.754 10.297 2.299 6.486 2.881 11.668 8.17 15.443 15.821h-35.212c-1.030-5.594-1.235-9.541-0.582-11.945zM394.381 311.019c1.27 5.011 1.341 8.956 0.171 11.909s-4.016 4.427-8.411 4.427c-4.78-0.211-9.168-1.717-12.868-4.176-5.286-3.291-9.703-9.038-11.632-15.834l32.735 3.671zM559.535 256.241h157.43c78.699-86.387-78.733-172.739 0-259.090h-157.43c-78.662 86.421 78.699 172.77 0 259.090zM580.059 126.714c-15.958-32.16 4.221-58.21 36.997-58.21 31.507 0 63.493 26.048 79.35 58.176 15.858 32.16-4.324 58.176-37.068 58.176-31.471 0.033-63.392-25.98-79.281-58.141zM613.179 144.902c5.698 3.774 11.121 5.662 16.235 5.662 5.731 0 9.506-1.748 11.291-5.251 1.748-3.5 1.682-8.889-0.308-16.198h27.595c2.129 5.698 1.716 9.61-1.165 11.706-1.578 1.201-4.636 1.923-9.164 2.196 1.303 2.987 2.572 5.938 3.707 8.956 5.904 0 10.057-0.959 12.663-2.881 4.909-3.5 5.457-10.158 1.614-19.974h9.851c-0.722-1.614-1.509-3.226-2.162-4.841h-9.813c-5.1-9.426-12.427-17.069-21.301-22.396 5.075 2.969-2.706-0.368-11.265-0.368-0.241 0-0.481 0.002-0.724 0.005-6.211 0-9.95 2.263-11.152 6.83-0.722 2.814-0.549 8.1 0.857 15.926h-24.677c-1.956-4.666-1.716-8.031 0.788-10.158 1.625-1.258 3.681-2.028 5.916-2.064l-3.957-8.882c-5.662 0.206-9.437 2.059-11.462 5.662-1.923 3.603-1.614 8.751 0.959 15.478h-6.625c0.722 1.614 1.477 3.19 2.162 4.841h6.761c3.19 6.725 7.619 11.945 13.383 15.753zM646.608 110.613c2.608 0 5.251 0.619 7.824 1.748 4.909 2.162 8.788 6.177 11.668 11.945h-26.599c-0.407-1.683-0.644-3.619-0.644-5.609 0-1.194 0.085-2.367 0.25-3.516 0.774-2.99 3.278-4.571 7.499-4.571zM631.231 129.081c0.959 3.774 0.995 6.761 0.138 8.993s-3.089 3.329-6.416 3.329c-7.984-0.55-14.674-5.569-17.628-12.55l23.908 0.231zM900.615 812.651c16.951-17.644 18.499-50.484 15.685-94.384-19.905-1.303-49.354 1.989-59.685 0-25.227-50.211-61.537-89.407-113.292-113.227 1.786-32.847 6.246-63.012 25.159-78.662-46.196-3.157-85.185 28.039-110.067 56.629-93.214-96.818-370.084-114.047-503.353 25.159-22.995-1.819-20.387-48.39 9.405-40.877-48.565-33.086-75.299 57.59-28.314 69.193-39.193 55.908-42.868 176.103 9.437 220.204 7.651 66.274 19.357 128.43 51.583 170.127h105.675c-2.713-21.451-5.526-44.378-3.157-69.398 64.215 14.586 140.544 18.807 217.047 12.595 11.807 19.598 23.267 39.502 37.34 56.8h104.643c-3.774-27.731-7.892-56.699-0.412-85.116 25.122-4.909 154.751-37.823 242.305-129.047zM756.194 672.21c14.369 0 26.016 11.646 26.016 26.016s-11.646 26.016-26.016 26.016c-14.369 0-26.016-11.646-26.016-26.016 0-14.369 11.646-26.016 26.016-26.016zM539.903 571.375c-32.883-11.684-70.813-18.431-110.317-18.431-40.276 0-78.915 7.017-114.759 19.893l-5.766-17.526c76.777-27.149 161.617-27.457 238.876-0.823l-8.031 16.886z" /></svg>