<!DOCTYPE svg PUBLIC "-//W3C//DTD SVG 1.1//EN" "http://www.w3.org/Graphics/SVG/1.1/DTD/svg11.dtd">
<!-- Uploaded to: SVG Repo, www.svgrepo.com, Transformed by: SVG Repo Mixer Tools -->
<svg fill="#ffffff" width="800px" height="800px" viewBox="-1 0 19 19" xmlns="http://www.w3.org/2000/svg" class="cf-icon-svg">
<g id="SVGRepo_bgCarrier" stroke-width="0"/>
<g id="SVGRepo_tracerCarrier" stroke-linecap="round" stroke-linejoin="round"/>
<g id="SVGRepo_iconCarrier">
<path d="M16.417 9.583A7.917 7.917 0 1 1 8.5 1.666a7.917 7.917 0 0 1 7.917 7.917zM12.75 5.691a.318.318 0 0 0-.317-.317h-7.84a.318.318 0 0 0-.316.317v5.563c0 2.34 4.236 3.658 4.236 3.658s4.237-1.318 4.237-3.658zm-1.655 3.374v1.062a.344.344 0 0 1-.344.343H9.388v1.364a.344.344 0 0 1-.343.344H7.984a.344.344 0 0 1-.344-.344V10.47H6.276a.344.344 0 0 1-.343-.343V9.065a.344.344 0 0 1 .343-.343H7.64V7.358a.344.344 0 0 1 .344-.343h1.061a.344.344 0 0 1 .343.343v1.364h1.364a.344.344 0 0 1 .344.343z"/>
</g>
</svg>