<!DOCTYPE svg PUBLIC "-//W3C//DTD SVG 1.1//EN" "http://www.w3.org/Graphics/SVG/1.1/DTD/svg11.dtd">
<!-- Uploaded to: SVG Repo, www.svgrepo.com, Transformed by: SVG Repo Mixer Tools -->
<svg fill="#ffffff" height="800px" width="800px" version="1.1" id="Capa_1" xmlns="http://www.w3.org/2000/svg" xmlns:xlink="http://www.w3.org/1999/xlink" viewBox="0 0 612 612" xml:space="preserve">
<g id="SVGRepo_bgCarrier" stroke-width="0"/>
<g id="SVGRepo_tracerCarrier" stroke-linecap="round" stroke-linejoin="round"/>
<g id="SVGRepo_iconCarrier"> <g> <g> <path d="M74.165,294.769v9.483V572.86h244.512V367.341h129.282v205.512h87.592V304.253v-9.483L304.858,122.543L74.165,294.769z M250.74,475.699H142.388V367.341h108.358v108.358H250.74z"/> <path d="M605.726,259.844l-69.035-45.952c0-58.911,0-127.232,0-127.232h-80.915c0,0,0,29.529,0,66.486L303.912,39.14 L6.191,259.892c-6.897,5.251-8.233,15.1-2.988,21.991c5.245,6.897,15.088,8.245,21.991,2.988l278.84-206.403l282.853,206.464 c2.824,2.122,6.129,3.141,9.41,3.141c4.763,0,9.477-2.165,12.563-6.269C614.056,274.876,612.66,265.046,605.726,259.844z"/> </g> </g> </g>
</svg>